<svg width="25" height="24" viewBox="0 0 25 24" fill="none" xmlns="http://www.w3.org/2000/svg">
<path d="M6.42619 14.3849L5.66673 17.2201L2.89092 17.2788C2.06136 15.7402 1.59082 13.9798 1.59082 12.109C1.59082 10.3 2.03076 8.59413 2.81059 7.09204H2.81119L5.28244 7.54511L6.365 10.0015C6.13842 10.6621 6.01493 11.3712 6.01493 12.109C6.01501 12.9098 6.16007 13.6771 6.42619 14.3849Z" fill="#FBBB00"/>
<path d="M23.2184 10.071C23.3437 10.731 23.409 11.4125 23.409 12.109C23.409 12.89 23.3269 13.6519 23.1705 14.3867C22.6394 16.8874 21.2518 19.071 19.3295 20.6163L19.3289 20.6157L16.2163 20.4569L15.7757 17.7068C17.0512 16.9588 18.048 15.7881 18.5731 14.3867H12.7397V10.071H18.6582H23.2184Z" fill="#518EF8"/>
<path d="M19.3291 20.6158L19.3297 20.6164C17.4602 22.119 15.0853 23.0181 12.5001 23.0181C8.34566 23.0181 4.73368 20.6961 2.89111 17.2789L6.42638 14.385C7.34765 16.8437 9.71948 18.594 12.5001 18.594C13.6953 18.594 14.815 18.2709 15.7758 17.7069L19.3291 20.6158Z" fill="#28B446"/>
<path d="M19.4631 3.71143L15.929 6.60472C14.9346 5.98316 13.7592 5.6241 12.4999 5.6241C9.6563 5.6241 7.24011 7.45465 6.36499 10.0015L2.81114 7.09205H2.81055C4.62614 3.59156 8.28367 1.19995 12.4999 1.19995C15.1468 1.19995 17.5738 2.14282 19.4631 3.71143Z" fill="#F14336"/>
</svg>
