<svg width="40" height="40" viewBox="0 0 40 40" fill="none" xmlns="http://www.w3.org/2000/svg">
<rect width="40" height="40" rx="9.35673" fill="#8347E7"/>
<path d="M23.2083 29.6146L23.1804 29.5676L23.1493 29.6125C22.613 30.3851 21.862 31.0011 21.0483 31.2983C20.2352 31.5952 19.3604 31.574 18.5713 31.0744C17.8721 30.6317 17.3259 30.1104 17.0596 29.6159L17.0226 29.5471L16.9957 29.6204C16.7991 30.1554 16.6078 30.5355 16.256 30.8226C15.8341 31.1671 15.3186 31.3184 14.7678 31.3831C14.3284 31.4347 13.8696 31.431 13.4201 31.4273C13.3055 31.4264 13.1914 31.4255 13.0784 31.4255C11.107 31.4255 9.50879 29.8273 9.50879 27.8558V18.3782C9.50879 12.5754 14.2128 7.8714 20.0156 7.8714C25.8183 7.8714 30.5223 12.5754 30.5223 18.3782V28.7561C30.5223 30.2304 29.3272 31.4255 27.853 31.4255H26.3955C25.0883 31.4255 23.8775 30.7375 23.2083 29.6146Z" fill="white" stroke="white" stroke-width="0.0703107"/>
<ellipse cx="20.0157" cy="16.4845" rx="2.81243" ry="2.81243" fill="#8347E7"/>
<path d="M25.6406 20.7031C25.6406 21.4418 25.4951 22.1732 25.2124 22.8556C24.9297 23.5381 24.5154 24.1582 23.9931 24.6805C23.4708 25.2028 22.8507 25.6171 22.1683 25.8998C21.4858 26.1825 20.7544 26.328 20.0157 26.328C19.2771 26.328 18.5456 26.1825 17.8632 25.8998C17.1807 25.6171 16.5607 25.2028 16.0384 24.6805C15.516 24.1582 15.1017 23.5381 14.819 22.8556C14.5364 22.1732 14.3909 21.4418 14.3909 20.7031H16.9577C16.9577 21.1047 17.0368 21.5023 17.1905 21.8733C17.3442 22.2444 17.5694 22.5815 17.8534 22.8654C18.1374 23.1494 18.4745 23.3746 18.8455 23.5283C19.2165 23.682 19.6141 23.7611 20.0157 23.7611C20.4173 23.7611 20.815 23.682 21.186 23.5283C21.557 23.3746 21.8941 23.1494 22.1781 22.8654C22.462 22.5815 22.6873 22.2444 22.8409 21.8733C22.9946 21.5023 23.0737 21.1047 23.0737 20.7031H25.6406Z" fill="#8347E7"/>
</svg>
