<svg width="44" height="44" viewBox="0 0 44 44" fill="none" xmlns="http://www.w3.org/2000/svg">
<rect x="0.5" y="0.5" width="43" height="43" rx="21.5" stroke="#F7F7F7"/>
<path d="M27 23.586V20C27 16.783 24.815 14.073 21.855 13.258C21.562 12.52 20.846 12 20 12C19.154 12 18.438 12.52 18.145 13.258C15.185 14.074 13 16.783 13 20V23.586L11.293 25.293C11.2 25.3857 11.1262 25.4959 11.0759 25.6172C11.0256 25.7386 10.9998 25.8687 11 26V28C11 28.2652 11.1054 28.5196 11.2929 28.7071C11.4804 28.8946 11.7348 29 12 29H28C28.2652 29 28.5196 28.8946 28.7071 28.7071C28.8946 28.5196 29 28.2652 29 28V26C29.0002 25.8687 28.9744 25.7386 28.9241 25.6172C28.8738 25.4959 28.8 25.3857 28.707 25.293L27 23.586ZM27 27H13V26.414L14.707 24.707C14.8 24.6143 14.8738 24.5041 14.9241 24.3828C14.9744 24.2614 15.0002 24.1313 15 24V20C15 17.243 17.243 15 20 15C22.757 15 25 17.243 25 20V24C25 24.266 25.105 24.52 25.293 24.707L27 26.414V27ZM20 32C20.6193 32.0008 21.2235 31.8086 21.7285 31.4502C22.2335 31.0917 22.6143 30.5849 22.818 30H17.182C17.3857 30.5849 17.7665 31.0917 18.2715 31.4502C18.7765 31.8086 19.3807 32.0008 20 32Z" fill="#565560"/>
<rect x="20" y="10" width="12" height="12" rx="6" fill="white"/>
<circle cx="26" cy="16.001" r="4" fill="#FF3E1D"/>
</svg>
