<svg width="41" height="40" viewBox="0 0 41 40" fill="none" xmlns="http://www.w3.org/2000/svg">
<path d="M37.2497 14.1693C37.2497 20.1526 32.3997 25.0026 26.4163 25.0026C26.133 25.0026 25.833 24.986 25.5497 24.9693C25.133 19.686 20.8997 15.4526 15.6163 15.0359C15.5997 14.7526 15.583 14.4526 15.583 14.1693C15.583 8.18594 20.433 3.33594 26.4163 3.33594C32.3997 3.33594 37.2497 8.18594 37.2497 14.1693Z" stroke="#FDC026" stroke-width="2.5" stroke-linecap="round" stroke-linejoin="round"/>
<path d="M25.5827 25.8358C25.5827 31.8191 20.7327 36.6691 14.7493 36.6691C8.76602 36.6691 3.91602 31.8191 3.91602 25.8358C3.91602 19.8524 8.76602 15.0024 14.7493 15.0024C15.0327 15.0024 15.3327 15.0191 15.616 15.0358C20.8993 15.4524 25.1327 19.6858 25.5494 24.9691C25.566 25.2525 25.5827 25.5524 25.5827 25.8358Z" stroke="#FDC026" stroke-width="2.5" stroke-linecap="round" stroke-linejoin="round"/>
<path d="M13.283 24.3689L14.7497 21.6689L16.2163 24.3689L18.9163 25.8356L16.2163 27.3023L14.7497 30.0023L13.283 27.3023L10.583 25.8356L13.283 24.3689Z" stroke="#FDC026" stroke-width="2.5" stroke-linecap="round" stroke-linejoin="round"/>
</svg>
