<svg width="40" height="40" viewBox="0 0 40 40" fill="none" xmlns="http://www.w3.org/2000/svg">
<path d="M35.1339 14.3027V25.7026C35.1339 27.5693 34.1339 29.3027 32.5173 30.2527L22.6173 35.9693C21.0006 36.9027 19.0006 36.9027 17.3673 35.9693L7.46725 30.2527C5.85059 29.3193 4.85059 27.5859 4.85059 25.7026V14.3027C4.85059 12.436 5.85059 10.7026 7.46725 9.75259L17.3673 4.03594C18.9839 3.1026 20.9839 3.1026 22.6173 4.03594L32.5173 9.75259C34.1339 10.7026 35.1339 12.4193 35.1339 14.3027Z" stroke="#F87D40" stroke-width="2.5" stroke-linecap="round" stroke-linejoin="round"/>
<path d="M20.0005 18.3355C22.1452 18.3355 23.8839 16.5968 23.8839 14.4521C23.8839 12.3074 22.1452 10.5688 20.0005 10.5688C17.8558 10.5688 16.1172 12.3074 16.1172 14.4521C16.1172 16.5968 17.8558 18.3355 20.0005 18.3355Z" stroke="#F87D40" stroke-width="2.5" stroke-linecap="round" stroke-linejoin="round"/>
<path d="M26.6673 27.7687C26.6673 24.7687 23.684 22.3354 20.0007 22.3354C16.3173 22.3354 13.334 24.7687 13.334 27.7687" stroke="#F87D40" stroke-width="2.5" stroke-linecap="round" stroke-linejoin="round"/>
</svg>
